{
  "accessors": [
    {
      "bufferView": 2,
      "componentType": 5126,
      "count": 4052,
      "max": [
        1.8224149942398071,
        1.4235899448394775,
        17.16825294494629
      ],
      "min": [
        -1.65339994430542,
        -1.9441620111465454,
        1.5695610046386719
      ],
      "type": "VEC3"
    },
    {
      "bufferView": 2,
      "byteOffset": 48624,
      "componentType": 5126,
      "count": 4052,
      "max": [
        0.9998153448104858,
        0.9989200234413147,
        0.9976828694343567
      ],
      "min": [
        -0.9998007416725159,
        -0.9997400045394897,
        -0.9925422668457031
      ],
      "type": "VEC3"
    },
    {
      "bufferView": 1,
      "componentType": 5126,
      "count": 4052,
      "max": [
        0.993071973323822,
        0.9926900267601013
      ],
      "min": [
        0.006928000133484602,
        0.007269999943673611
      ],
      "type": "VEC2"
    },
    {
      "bufferView": 0,
      "componentType": 5125,
      "count": 20328,
      "type": "SCALAR"
    },
    {
      "bufferView": 2,
      "byteOffset": 97248,
      "componentType": 5126,
      "count": 4,
      "max": [
        -0.7758269906044006,
        -0.581341028213501,
        17.004154205322266
      ],
      "min": [
        -0.7767819762229919,
        -0.5825430154800415,
        17.00315284729004
      ],
      "type": "VEC3"
    },
    {
      "bufferView": 2,
      "byteOffset": 97296,
      "componentType": 5126,
      "count": 4,
      "max": [
        -0.8175405859947205,
        0.5697324275970459,
        0.08386006206274033
      ],
      "min": [
        -0.8197261691093445,
        0.5666711330413818,
        0.08326402306556702
      ],
      "type": "VEC3"
    },
    {
      "bufferView": 1,
      "byteOffset": 32416,
      "componentType": 5126,
      "count": 4,
      "max": [
        0.5555559992790222,
        0.0
      ],
      "min": [
        0.13888899981975555,
        0.0
      ],
      "type": "VEC2"
    },
    {
      "bufferView": 0,
      "byteOffset": 81312,
      "componentType": 5125,
      "count": 6,
      "type": "SCALAR"
    },
    {
      "bufferView": 2,
      "byteOffset": 97344,
      "componentType": 5126,
      "count": 225,
      "max": [
        1.5116130113601685,
        1.4683040380477905,
        17.208362579345703
      ],
      "min": [
        -0.6478859782218933,
        -0.8942300081253052,
        14.545774459838867
      ],
      "type": "VEC3"
    },
    {
      "bufferView": 2,
      "byteOffset": 100044,
      "componentType": 5126,
      "count": 225,
      "max": [
        0.9901531338691711,
        0.9919527769088745,
        0.9929213523864746
      ],
      "min": [
        -0.9968974590301514,
        -0.945730447769165,
        -0.8363811373710632
      ],
      "type": "VEC3"
    },
    {
      "bufferView": 1,
      "byteOffset": 32448,
      "componentType": 5126,
      "count": 225,
      "max": [
        0.999305009841919,
        0.9370830059051514
      ],
      "min": [
        0.0006949999951757491,
        0.07263199985027313
      ],
      "type": "VEC2"
    },
    {
      "bufferView": 0,
      "byteOffset": 81336,
      "componentType": 5125,
      "count": 1182,
      "type": "SCALAR"
    },
    {
      "bufferView": 2,
      "byteOffset": 102744,
      "componentType": 5126,
      "count": 357,
      "max": [
        1.5933209657669067,
        1.5066499710083008,
        1.641610026359558
      ],
      "min": [
        -1.4365010261535645,
        -0.8352659940719604,
        0.1764419972896576
      ],
      "type": "VEC3"
    },
    {
      "bufferView": 2,
      "byteOffset": 107028,
      "componentType": 5126,
      "count": 357,
      "max": [
        0.9996939897537231,
        0.9875232577323914,
        0.9474972486495972
      ],
      "min": [
        -0.9994377493858337,
        -0.9991810917854309,
        -0.22069106996059418
      ],
      "type": "VEC3"
    },
    {
      "bufferView": 1,
      "byteOffset": 34248,
      "componentType": 5126,
      "count": 357,
      "max": [
        0.993071973323822,
        0.4150199890136719
      ],
      "min": [
        0.006928000133484602,
        0.00752299977466464
      ],
      "type": "VEC2"
    },
    {
      "bufferView": 0,
      "byteOffset": 86064,
      "componentType": 5125,
      "count": 1602,
      "type": "SCALAR"
    },
    {
      "bufferView": 2,
      "byteOffset": 111312,
      "componentType": 5126,
      "count": 234,
      "max": [
        1.137477993965149,
        -0.37512001395225525,
        15.845206260681152
      ],
      "min": [
        -0.28437599539756775,
        -0.8050770163536072,
        15.279467582702637
      ],
      "type": "VEC3"
    },
    {
      "bufferView": 2,
      "byteOffset": 114120,
      "componentType": 5126,
      "count": 234,
      "max": [
        0.8537781834602356,
        0.9990600943565369,
        0.9828092455863953
      ],
      "min": [
        -0.6790279746055603,
        -0.9840262532234192,
        -0.9965485334396362
      ],
      "type": "VEC3"
    },
    {
      "bufferView": 1,
      "byteOffset": 37104,
      "componentType": 5126,
      "count": 234,
      "max": [
        0.6675570011138916,
        0.28010600805282593
      ],
      "min": [
        0.3874329924583435,
        0.06305699795484543
      ],
      "type": "VEC2"
    },
    {
      "bufferView": 0,
      "byteOffset": 92472,
      "componentType": 5125,
      "count": 582,
      "type": "SCALAR"
    },
    {
      "bufferView": 2,
      "byteOffset": 116928,
      "componentType": 5126,
      "count": 774,
      "max": [
        1.4778469800949097,
        0.8009870052337646,
        17.009441375732422
      ],
      "min": [
        -0.8814600110054016,
        -0.9056879878044128,
        14.425949096679688
      ],
      "type": "VEC3"
    },
    {
      "bufferView": 2,
      "byteOffset": 126216,
      "componentType": 5126,
      "count": 774,
      "max": [
        0.9874527454376221,
        0.9974591135978699,
        0.9190847873687744
      ],
      "min": [
        -0.9977610111236572,
        -0.9988558888435364,
        -0.991541862487793
      ],
      "type": "VEC3"
    },
    {
      "bufferView": 1,
      "byteOffset": 38976,
      "componentType": 5126,
      "count": 774,
      "max": [
        0.9924529790878296,
        0.9926249980926514
      ],
      "min": [
        0.007546999957412481,
        0.006523000076413155
      ],
      "type": "VEC2"
    },
    {
      "bufferView": 0,
      "byteOffset": 94800,
      "componentType": 5125,
      "count": 4026,
      "type": "SCALAR"
    },
    {
      "bufferView": 2,
      "byteOffset": 135504,
      "componentType": 5126,
      "count": 74,
      "max": [
        1.1255340576171875,
        -0.25985199213027954,
        15.654662132263184
      ],
      "min": [
        -0.311383992433548,
        -0.6679059863090515,
        15.15060043334961
      ],
      "type": "VEC3"
    },
    {
      "bufferView": 2,
      "byteOffset": 136392,
      "componentType": 5126,
      "count": 74,
      "max": [
        0.9984095096588135,
        0.9549540281295776,
        0.957176148891449
      ],
      "min": [
        -0.9879171252250671,
        -0.9266323447227478,
        -0.9969082474708557
      ],
      "type": "VEC3"
    },
    {
      "bufferView": 1,
      "byteOffset": 45168,
      "componentType": 5126,
      "count": 74,
      "max": [
        0.9872850179672241,
        0.8493419885635376
      ],
      "min": [
        0.012714000418782234,
        0.08551199734210968
      ],
      "type": "VEC2"
    },
    {
      "bufferView": 0,
      "byteOffset": 110904,
      "componentType": 5125,
      "count": 288,
      "type": "SCALAR"
    },
    {
      "bufferView": 2,
      "byteOffset": 137280,
      "componentType": 5126,
      "count": 464,
      "max": [
        1.4417660236358643,
        -0.5289120078086853,
        16.190502166748047
      ],
      "min": [
        -0.4905160069465637,
        -1.1330729722976685,
        15.675174713134766
      ],
      "type": "VEC3"
    },
    {
      "bufferView": 2,
      "byteOffset": 142848,
      "componentType": 5126,
      "count": 464,
      "max": [
        0.9974600076675415,
        0.9925209879875183,
        0.9915388822555542
      ],
      "min": [
        -0.9974755048751831,
        -0.9925331473350525,
        -0.9968364834785461
      ],
      "type": "VEC3"
    },
    {
      "bufferView": 1,
      "byteOffset": 45760,
      "componentType": 5126,
      "count": 464,
      "max": [
        0.1254899948835373,
        0.4329119920730591
      ],
      "min": [
        0.02375599928200245,
        0.3146350085735321
      ],
      "type": "VEC2"
    },
    {
      "bufferView": 0,
      "byteOffset": 112056,
      "componentType": 5125,
      "count": 960,
      "type": "SCALAR"
    },
    {
      "bufferView": 2,
      "byteOffset": 148416,
      "componentType": 5126,
      "count": 800,
      "max": [
        1.757200002670288,
        2.0952389240264893,
        17.44741439819336
      ],
      "min": [
        -1.823032021522522,
        -1.1575709581375122,
        10.726663589477539
      ],
      "type": "VEC3"
    },
    {
      "bufferView": 2,
      "byteOffset": 158016,
      "componentType": 5126,
      "count": 800,
      "max": [
        0.9993462562561035,
        0.999294638633728,
        0.9990149736404419
      ],
      "min": [
        -0.9992237687110901,
        -0.9991104602813721,
        -0.9702626466751099
      ],
      "type": "VEC3"
    },
    {
      "bufferView": 1,
      "byteOffset": 49472,
      "componentType": 5126,
      "count": 800,
      "max": [
        0.9853579998016357,
        0.9900000095367432
      ],
      "min": [
        0.009999999776482582,
        0.009999999776482582
      ],
      "type": "VEC2"
    },
    {
      "bufferView": 0,
      "byteOffset": 115896,
      "componentType": 5125,
      "count": 3156,
      "type": "SCALAR"
    },
    {
      "bufferView": 2,
      "byteOffset": 167616,
      "componentType": 5126,
      "count": 1967,
      "max": [
        2.304969072341919,
        1.6691950559616089,
        14.663825988769531
      ],
      "min": [
        -2.2602009773254395,
        -1.5616639852523804,
        -0.016102999448776245
      ],
      "type": "VEC3"
    },
    {
      "bufferView": 2,
      "byteOffset": 191220,
      "componentType": 5126,
      "count": 1967,
      "max": [
        0.9998672604560852,
        0.9985718727111816,
        0.9999656081199646
      ],
      "min": [
        -0.9994914531707764,
        -0.9997353553771973,
        -0.9999833703041077
      ],
      "type": "VEC3"
    },
    {
      "bufferView": 1,
      "byteOffset": 55872,
      "componentType": 5126,
      "count": 1967,
      "max": [
        0.9900000095367432,
        0.9900000095367432
      ],
      "min": [
        0.009999999776482582,
        0.061900001019239426
      ],
      "type": "VEC2"
    },
    {
      "bufferView": 0,
      "byteOffset": 128520,
      "componentType": 5125,
      "count": 9282,
      "type": "SCALAR"
    },
    {
      "bufferView": 2,
      "byteOffset": 214824,
      "componentType": 5126,
      "count": 128,
      "max": [
        1.0410159826278687,
        -0.4113970100879669,
        15.663740158081055
      ],
      "min": [
        -0.20526500046253204,
        -0.685280978679657,
        15.160822868347168
      ],
      "type": "VEC3"
    },
    {
      "bufferView": 2,
      "byteOffset": 216360,
      "componentType": 5126,
      "count": 128,
      "max": [
        0.5942919254302979,
        -0.755813717842102,
        -0.0024000010453164577
      ],
      "min": [
        -0.4750541150569916,
        -0.994583010673523,
        -0.41457098722457886
      ],
      "type": "VEC3"
    },
    {
      "bufferView": 1,
      "byteOffset": 71608,
      "componentType": 5126,
      "count": 128,
      "max": [
        0.9040020108222961,
        0.8262959718704224
      ],
      "min": [
        0.09599900245666504,
        0.18635700643062592
      ],
      "type": "VEC2"
    },
    {
      "bufferView": 0,
      "byteOffset": 165648,
      "componentType": 5125,
      "count": 576,
      "type": "SCALAR"
    }
  ],
  "asset": {
    "extras": {
      "author": "Seraphim Sarov (https://sketchfab.com/Songti)",
      "license": "CC-BY-4.0 (http://creativecommons.org/licenses/by/4.0/)",
      "source": "https://sketchfab.com/3d-models/fanart-garin-blackx-luntima-student-girl-ca7d9222a2864e2897e640171e22a24f",
      "title": "Fanart Garin BlackX - Luntima student girl"
    },
    "generator": "Sketchfab-12.67.0",
    "version": "2.0"
  },
  "bufferViews": [
    {
      "buffer": 0,
      "byteLength": 167952,
      "name": "floatBufferViews",
      "target": 34963
    },
    {
      "buffer": 0,
      "byteLength": 72632,
      "byteOffset": 167952,
      "byteStride": 8,
      "name": "floatBufferViews",
      "target": 34962
    },
    {
      "buffer": 0,
      "byteLength": 217896,
      "byteOffset": 240584,
      "byteStride": 12,
      "name": "floatBufferViews",
      "target": 34962
    }
  ],
  "buffers": [
    {
      "byteLength": 458480,
      "uri": "scene.bin"
    }
  ],
  "extensionsUsed": [
    "KHR_materials_unlit"
  ],
  "images": [
    {
      "uri": "textures/Material_002_baseColor.png"
    },
    {
      "uri": "textures/forpaint_F00_000_Body_00_SKIN_baseColor.png"
    },
    {
      "uri": "textures/forpaint_F00_000_EyeWhite_00_EYE_baseColor.png"
    },
    {
      "uri": "textures/forpaint_F00_000_Face_00_SKIN_baseColor.png"
    },
    {
      "uri": "textures/forpaint_F00_000_HairBack_00_HAIR_baseColor.png"
    },
    {
      "uri": "textures/lambert25SG_baseColor.png"
    },
    {
      "uri": "textures/lambert26SG_baseColor.png"
    },
    {
      "uri": "textures/lambert27SG_baseColor.png"
    },
    {
      "uri": "textures/lambert28SG_baseColor.png"
    }
  ],
  "materials": [
    {
      "doubleSided": true,
      "extensions": {
        "KHR_materials_unlit": {}
      },
      "name": "Material_002",
      "pbrMetallicRoughness": {
        "baseColorTexture": {
          "index": 0
        },
        "metallicFactor": 0.0
      }
    },
    {
      "doubleSided": true,
      "extensions": {
        "KHR_materials_unlit": {}
      },
      "name": "forpaint_F00_000_Body_00_SKIN",
      "pbrMetallicRoughness": {
        "baseColorTexture": {
          "index": 1
        },
        "metallicFactor": 0.0
      }
    },
    {
      "doubleSided": true,
      "extensions": {
        "KHR_materials_unlit": {}
      },
      "name": "forpaint_F00_000_EyeWhite_00_EYE",
      "pbrMetallicRoughness": {
        "baseColorTexture": {
          "index": 2
        },
        "metallicFactor": 0.0
      }
    },
    {
      "doubleSided": true,
      "extensions": {
        "KHR_materials_unlit": {}
      },
      "name": "forpaint_F00_000_Face_00_SKIN",
      "pbrMetallicRoughness": {
        "baseColorTexture": {
          "index": 3
        },
        "metallicFactor": 0.0
      }
    },
    {
      "alphaMode": "BLEND",
      "doubleSided": true,
      "extensions": {
        "KHR_materials_unlit": {}
      },
      "name": "forpaint_F00_000_HairBack_00_HAIR",
      "pbrMetallicRoughness": {
        "baseColorTexture": {
          "index": 4
        },
        "metallicFactor": 0.0
      }
    },
    {
      "doubleSided": true,
      "extensions": {
        "KHR_materials_unlit": {}
      },
      "name": "forpaint_F00_000_Hair_00_HAIR",
      "pbrMetallicRoughness": {
        "metallicFactor": 0.0
      }
    },
    {
      "doubleSided": true,
      "extensions": {
        "KHR_materials_unlit": {}
      },
      "name": "lambert25SG",
      "pbrMetallicRoughness": {
        "baseColorTexture": {
          "index": 5
        },
        "metallicFactor": 0.0
      }
    },
    {
      "doubleSided": true,
      "extensions": {
        "KHR_materials_unlit": {}
      },
      "name": "lambert26SG",
      "pbrMetallicRoughness": {
        "baseColorTexture": {
          "index": 6
        },
        "metallicFactor": 0.0
      }
    },
    {
      "doubleSided": true,
      "extensions": {
        "KHR_materials_unlit": {}
      },
      "name": "lambert27SG",
      "pbrMetallicRoughness": {
        "baseColorTexture": {
          "index": 7
        },
        "metallicFactor": 0.0
      }
    },
    {
      "doubleSided": true,
      "extensions": {
        "KHR_materials_unlit": {}
      },
      "name": "lambert28SG",
      "pbrMetallicRoughness": {
        "baseColorTexture": {
          "index": 8
        },
        "metallicFactor": 0.0
      }
    },
    {
      "doubleSided": true,
      "extensions": {
        "KHR_materials_unlit": {}
      },
      "name": "lambert29SG",
      "pbrMetallicRoughness": {
        "metallicFactor": 0.0
      }
    }
  ],
  "meshes": [
    {
      "name": "Object_0",
      "primitives": [
        {
          "attributes": {
            "NORMAL": 1,
            "POSITION": 0,
            "TEXCOORD_0": 2
          },
          "indices": 3,
          "material": 1,
          "mode": 4
        }
      ]
    },
    {
      "name": "Object_1",
      "primitives": [
        {
          "attributes": {
            "NORMAL": 5,
            "POSITION": 4,
            "TEXCOORD_0": 6
          },
          "indices": 7,
          "material": 5,
          "mode": 4
        }
      ]
    },
    {
      "name": "Object_2",
      "primitives": [
        {
          "attributes": {
            "NORMAL": 9,
            "POSITION": 8,
            "TEXCOORD_0": 10
          },
          "indices": 11,
          "material": 4,
          "mode": 4
        }
      ]
    },
    {
      "name": "Object_3",
      "primitives": [
        {
          "attributes": {
            "NORMAL": 13,
            "POSITION": 12,
            "TEXCOORD_0": 14
          },
          "indices": 15,
          "material": 10,
          "mode": 4
        }
      ]
    },
    {
      "name": "Object_4",
      "primitives": [
        {
          "attributes": {
            "NORMAL": 17,
            "POSITION": 16,
            "TEXCOORD_0": 18
          },
          "indices": 19,
          "material": 0,
          "mode": 4
        }
      ]
    },
    {
      "name": "Object_5",
      "primitives": [
        {
          "attributes": {
            "NORMAL": 21,
            "POSITION": 20,
            "TEXCOORD_0": 22
          },
          "indices": 23,
          "material": 3,
          "mode": 4
        }
      ]
    },
    {
      "name": "Object_6",
      "primitives": [
        {
          "attributes": {
            "NORMAL": 25,
            "POSITION": 24,
            "TEXCOORD_0": 26
          },
          "indices": 27,
          "material": 2,
          "mode": 4
        }
      ]
    },
    {
      "name": "Object_7",
      "primitives": [
        {
          "attributes": {
            "NORMAL": 29,
            "POSITION": 28,
            "TEXCOORD_0": 30
          },
          "indices": 31,
          "material": 6,
          "mode": 4
        }
      ]
    },
    {
      "name": "Object_8",
      "primitives": [
        {
          "attributes": {
            "NORMAL": 33,
            "POSITION": 32,
            "TEXCOORD_0": 34
          },
          "indices": 35,
          "material": 7,
          "mode": 4
        }
      ]
    },
    {
      "name": "Object_9",
      "primitives": [
        {
          "attributes": {
            "NORMAL": 37,
            "POSITION": 36,
            "TEXCOORD_0": 38
          },
          "indices": 39,
          "material": 8,
          "mode": 4
        }
      ]
    },
    {
      "name": "Object_10",
      "primitives": [
        {
          "attributes": {
            "NORMAL": 41,
            "POSITION": 40,
            "TEXCOORD_0": 42
          },
          "indices": 43,
          "material": 9,
          "mode": 4
        }
      ]
    }
  ],
  "nodes": [
    {
      "children": [
        1
      ],
      "matrix": [
        1.0,
        0.0,
        0.0,
        0.0,
        0.0,
        2.220446049250313e-16,
        -1.0,
        0.0,
        0.0,
        1.0,
        2.220446049250313e-16,
        0.0,
        0.0,
        0.0,
        0.0,
        1.0
      ],
      "name": "Sketchfab_model"
    },
    {
      "children": [
        2,
        3,
        4,
        5,
        6,
        7,
        8,
        9,
        10,
        11,
        12
      ],
      "name": "body1.obj.cleaner.materialmerger.gles"
    },
    {
      "mesh": 0,
      "name": "Object_2"
    },
    {
      "mesh": 1,
      "name": "Object_3"
    },
    {
      "mesh": 2,
      "name": "Object_4"
    },
    {
      "mesh": 3,
      "name": "Object_5"
    },
    {
      "mesh": 4,
      "name": "Object_6"
    },
    {
      "mesh": 5,
      "name": "Object_7"
    },
    {
      "mesh": 6,
      "name": "Object_8"
    },
    {
      "mesh": 7,
      "name": "Object_9"
    },
    {
      "mesh": 8,
      "name": "Object_10"
    },
    {
      "mesh": 9,
      "name": "Object_11"
    },
    {
      "mesh": 10,
      "name": "Object_12"
    }
  ],
  "samplers": [
    {
      "magFilter": 9729,
      "minFilter": 9987,
      "wrapS": 10497,
      "wrapT": 10497
    }
  ],
  "scene": 0,
  "scenes": [
    {
      "name": "Sketchfab_Scene",
      "nodes": [
        0
      ]
    }
  ],
  "textures": [
    {
      "sampler": 0,
      "source": 0
    },
    {
      "sampler": 0,
      "source": 1
    },
    {
      "sampler": 0,
      "source": 2
    },
    {
      "sampler": 0,
      "source": 3
    },
    {
      "sampler": 0,
      "source": 4
    },
    {
      "sampler": 0,
      "source": 5
    },
    {
      "sampler": 0,
      "source": 6
    },
    {
      "sampler": 0,
      "source": 7
    },
    {
      "sampler": 0,
      "source": 8
    }
  ]
}
